<mxfile host="app.diagrams.net" modified="2023-12-31T15:49:26.269Z" agent="Mozilla/5.0 (Macintosh; Intel Mac OS X 10_15_7) AppleWebKit/605.1.15 (KHTML, like Gecko) Version/17.2.1 Safari/605.1.15" etag="MrnZrX-VJ1d9-AdA2z29" version="22.1.16" type="device" pages="5">
  <diagram name="rx" id="Zl5INFyiHqyWrr07woZi">
    <mxGraphModel dx="995" dy="591" grid="1" gridSize="10" guides="1" tooltips="1" connect="1" arrows="1" fold="1" page="1" pageScale="1" pageWidth="850" pageHeight="1100" math="0" shadow="0">
      <root>
        <mxCell id="0" />
        <mxCell id="1" parent="0" />
        <mxCell id="AuckySKjeot--S4yMJMS-1" value="rx" style="rounded=0;whiteSpace=wrap;html=1;fontStyle=1" vertex="1" parent="1">
          <mxGeometry x="410" y="350" width="70" height="40" as="geometry" />
        </mxCell>
        <mxCell id="AuckySKjeot--S4yMJMS-3" value="low" style="edgeStyle=orthogonalEdgeStyle;rounded=0;orthogonalLoop=1;jettySize=auto;html=1;exitX=0.5;exitY=1;exitDx=0;exitDy=0;entryX=0.5;entryY=0;entryDx=0;entryDy=0;" edge="1" parent="1" source="AuckySKjeot--S4yMJMS-2" target="AuckySKjeot--S4yMJMS-1">
          <mxGeometry relative="1" as="geometry" />
        </mxCell>
        <mxCell id="AuckySKjeot--S4yMJMS-2" value="&amp;amp;th" style="rounded=0;whiteSpace=wrap;html=1;fontStyle=1" vertex="1" parent="1">
          <mxGeometry x="410" y="270" width="70" height="40" as="geometry" />
        </mxCell>
        <mxCell id="AuckySKjeot--S4yMJMS-9" value="high" style="edgeStyle=orthogonalEdgeStyle;rounded=0;orthogonalLoop=1;jettySize=auto;html=1;exitX=0.5;exitY=1;exitDx=0;exitDy=0;entryX=0;entryY=0.5;entryDx=0;entryDy=0;" edge="1" parent="1" source="AuckySKjeot--S4yMJMS-4" target="AuckySKjeot--S4yMJMS-2">
          <mxGeometry relative="1" as="geometry" />
        </mxCell>
        <mxCell id="AuckySKjeot--S4yMJMS-4" value="&amp;amp;xn" style="rounded=0;whiteSpace=wrap;html=1;fontStyle=1" vertex="1" parent="1">
          <mxGeometry x="270" y="170" width="70" height="40" as="geometry" />
        </mxCell>
        <mxCell id="AuckySKjeot--S4yMJMS-8" value="high" style="edgeStyle=orthogonalEdgeStyle;rounded=0;orthogonalLoop=1;jettySize=auto;html=1;exitX=0.5;exitY=1;exitDx=0;exitDy=0;entryX=0.25;entryY=0;entryDx=0;entryDy=0;" edge="1" parent="1" source="AuckySKjeot--S4yMJMS-5" target="AuckySKjeot--S4yMJMS-2">
          <mxGeometry relative="1" as="geometry" />
        </mxCell>
        <mxCell id="AuckySKjeot--S4yMJMS-5" value="&amp;amp;qn" style="rounded=0;whiteSpace=wrap;html=1;fontStyle=1" vertex="1" parent="1">
          <mxGeometry x="360" y="170" width="70" height="40" as="geometry" />
        </mxCell>
        <mxCell id="AuckySKjeot--S4yMJMS-10" value="high" style="edgeStyle=orthogonalEdgeStyle;rounded=0;orthogonalLoop=1;jettySize=auto;html=1;exitX=0.5;exitY=1;exitDx=0;exitDy=0;entryX=0.75;entryY=0;entryDx=0;entryDy=0;" edge="1" parent="1" source="AuckySKjeot--S4yMJMS-6" target="AuckySKjeot--S4yMJMS-2">
          <mxGeometry relative="1" as="geometry" />
        </mxCell>
        <mxCell id="AuckySKjeot--S4yMJMS-6" value="&amp;amp;xf" style="rounded=0;whiteSpace=wrap;html=1;fontStyle=1" vertex="1" parent="1">
          <mxGeometry x="450" y="170" width="70" height="40" as="geometry" />
        </mxCell>
        <mxCell id="AuckySKjeot--S4yMJMS-11" value="high" style="edgeStyle=orthogonalEdgeStyle;rounded=0;orthogonalLoop=1;jettySize=auto;html=1;exitX=0.5;exitY=1;exitDx=0;exitDy=0;entryX=1;entryY=0.5;entryDx=0;entryDy=0;" edge="1" parent="1" source="AuckySKjeot--S4yMJMS-7" target="AuckySKjeot--S4yMJMS-2">
          <mxGeometry relative="1" as="geometry" />
        </mxCell>
        <mxCell id="AuckySKjeot--S4yMJMS-7" value="&amp;amp;zl" style="rounded=0;whiteSpace=wrap;html=1;fontStyle=1" vertex="1" parent="1">
          <mxGeometry x="540" y="170" width="70" height="40" as="geometry" />
        </mxCell>
        <mxCell id="AuckySKjeot--S4yMJMS-16" style="edgeStyle=orthogonalEdgeStyle;rounded=0;orthogonalLoop=1;jettySize=auto;html=1;exitX=0.5;exitY=1;exitDx=0;exitDy=0;entryX=0.5;entryY=0;entryDx=0;entryDy=0;" edge="1" parent="1" source="AuckySKjeot--S4yMJMS-12" target="AuckySKjeot--S4yMJMS-4">
          <mxGeometry relative="1" as="geometry" />
        </mxCell>
        <mxCell id="AuckySKjeot--S4yMJMS-20" value="low" style="edgeLabel;html=1;align=center;verticalAlign=middle;resizable=0;points=[];" vertex="1" connectable="0" parent="AuckySKjeot--S4yMJMS-16">
          <mxGeometry x="-0.1444" relative="1" as="geometry">
            <mxPoint as="offset" />
          </mxGeometry>
        </mxCell>
        <mxCell id="AuckySKjeot--S4yMJMS-12" value="&amp;amp;gf" style="rounded=0;whiteSpace=wrap;html=1;fontStyle=1" vertex="1" parent="1">
          <mxGeometry x="270" y="70" width="70" height="40" as="geometry" />
        </mxCell>
        <mxCell id="AuckySKjeot--S4yMJMS-17" value="low" style="edgeStyle=orthogonalEdgeStyle;rounded=0;orthogonalLoop=1;jettySize=auto;html=1;exitX=0.5;exitY=1;exitDx=0;exitDy=0;entryX=0.5;entryY=0;entryDx=0;entryDy=0;" edge="1" parent="1" source="AuckySKjeot--S4yMJMS-13" target="AuckySKjeot--S4yMJMS-5">
          <mxGeometry relative="1" as="geometry" />
        </mxCell>
        <mxCell id="AuckySKjeot--S4yMJMS-13" value="&amp;amp;vc" style="rounded=0;whiteSpace=wrap;html=1;fontStyle=1" vertex="1" parent="1">
          <mxGeometry x="360" y="70" width="70" height="40" as="geometry" />
        </mxCell>
        <mxCell id="AuckySKjeot--S4yMJMS-18" value="low" style="edgeStyle=orthogonalEdgeStyle;rounded=0;orthogonalLoop=1;jettySize=auto;html=1;exitX=0.5;exitY=1;exitDx=0;exitDy=0;entryX=0.5;entryY=0;entryDx=0;entryDy=0;" edge="1" parent="1" source="AuckySKjeot--S4yMJMS-14" target="AuckySKjeot--S4yMJMS-6">
          <mxGeometry relative="1" as="geometry" />
        </mxCell>
        <mxCell id="AuckySKjeot--S4yMJMS-14" value="&amp;amp;db" style="rounded=0;whiteSpace=wrap;html=1;fontStyle=1" vertex="1" parent="1">
          <mxGeometry x="450" y="70" width="70" height="40" as="geometry" />
        </mxCell>
        <mxCell id="AuckySKjeot--S4yMJMS-19" value="low" style="edgeStyle=orthogonalEdgeStyle;rounded=0;orthogonalLoop=1;jettySize=auto;html=1;exitX=0.5;exitY=1;exitDx=0;exitDy=0;entryX=0.5;entryY=0;entryDx=0;entryDy=0;" edge="1" parent="1" source="AuckySKjeot--S4yMJMS-15" target="AuckySKjeot--S4yMJMS-7">
          <mxGeometry relative="1" as="geometry" />
        </mxCell>
        <mxCell id="AuckySKjeot--S4yMJMS-15" value="&amp;amp;qx" style="rounded=0;whiteSpace=wrap;html=1;fontStyle=1" vertex="1" parent="1">
          <mxGeometry x="540" y="70" width="70" height="40" as="geometry" />
        </mxCell>
        <mxCell id="AuckySKjeot--S4yMJMS-77" value="low" style="edgeStyle=orthogonalEdgeStyle;rounded=0;orthogonalLoop=1;jettySize=auto;html=1;exitX=0.5;exitY=0;exitDx=0;exitDy=0;entryX=0.75;entryY=1;entryDx=0;entryDy=0;" edge="1" parent="1" source="AuckySKjeot--S4yMJMS-76">
          <mxGeometry relative="1" as="geometry">
            <mxPoint x="102.5" y="-30" as="targetPoint" />
          </mxGeometry>
        </mxCell>
      </root>
    </mxGraphModel>
  </diagram>
  <diagram id="so0QNid_KabY8GoFWS67" name="gf">
    <mxGraphModel dx="2044" dy="709" grid="1" gridSize="10" guides="1" tooltips="1" connect="1" arrows="1" fold="1" page="1" pageScale="1" pageWidth="850" pageHeight="1100" math="0" shadow="0">
      <root>
        <mxCell id="0" />
        <mxCell id="1" parent="0" />
        <mxCell id="a_MaoqPjlTy-i7oE1yRO-1" value="low" style="edgeStyle=orthogonalEdgeStyle;rounded=0;orthogonalLoop=1;jettySize=auto;html=1;exitX=1;exitY=0.5;exitDx=0;exitDy=0;entryX=0;entryY=0.5;entryDx=0;entryDy=0;" edge="1" parent="1" source="a_MaoqPjlTy-i7oE1yRO-2" target="a_MaoqPjlTy-i7oE1yRO-5">
          <mxGeometry relative="1" as="geometry" />
        </mxCell>
        <mxCell id="a_MaoqPjlTy-i7oE1yRO-2" value="broadcaster" style="rounded=0;whiteSpace=wrap;html=1;fontStyle=1" vertex="1" parent="1">
          <mxGeometry x="-370" y="890" width="70" height="40" as="geometry" />
        </mxCell>
        <mxCell id="a_MaoqPjlTy-i7oE1yRO-3" value="" style="edgeStyle=orthogonalEdgeStyle;rounded=0;orthogonalLoop=1;jettySize=auto;html=1;exitX=0.5;exitY=1;exitDx=0;exitDy=0;entryX=0.5;entryY=0;entryDx=0;entryDy=0;" edge="1" parent="1" source="a_MaoqPjlTy-i7oE1yRO-5" target="a_MaoqPjlTy-i7oE1yRO-8">
          <mxGeometry relative="1" as="geometry">
            <mxPoint as="offset" />
          </mxGeometry>
        </mxCell>
        <mxCell id="a_MaoqPjlTy-i7oE1yRO-4" value="high" style="rounded=0;orthogonalLoop=1;jettySize=auto;html=1;exitX=1;exitY=1;exitDx=0;exitDy=0;entryX=0;entryY=0.25;entryDx=0;entryDy=0;" edge="1" parent="1" source="a_MaoqPjlTy-i7oE1yRO-5" target="a_MaoqPjlTy-i7oE1yRO-36">
          <mxGeometry relative="1" as="geometry" />
        </mxCell>
        <mxCell id="a_MaoqPjlTy-i7oE1yRO-5" value="sr&amp;nbsp;" style="rounded=0;whiteSpace=wrap;html=1;fontStyle=1;" vertex="1" parent="1">
          <mxGeometry x="-230" y="890" width="70" height="40" as="geometry" />
        </mxCell>
        <mxCell id="a_MaoqPjlTy-i7oE1yRO-6" style="edgeStyle=orthogonalEdgeStyle;rounded=0;orthogonalLoop=1;jettySize=auto;html=1;exitX=0.5;exitY=1;exitDx=0;exitDy=0;entryX=0.5;entryY=0;entryDx=0;entryDy=0;" edge="1" parent="1" source="a_MaoqPjlTy-i7oE1yRO-8" target="a_MaoqPjlTy-i7oE1yRO-10">
          <mxGeometry relative="1" as="geometry" />
        </mxCell>
        <mxCell id="a_MaoqPjlTy-i7oE1yRO-7" style="rounded=0;orthogonalLoop=1;jettySize=auto;html=1;exitX=1;exitY=0.5;exitDx=0;exitDy=0;entryX=0;entryY=0.5;entryDx=0;entryDy=0;" edge="1" parent="1" source="a_MaoqPjlTy-i7oE1yRO-8" target="a_MaoqPjlTy-i7oE1yRO-36">
          <mxGeometry relative="1" as="geometry" />
        </mxCell>
        <mxCell id="a_MaoqPjlTy-i7oE1yRO-8" value="vl" style="rounded=0;whiteSpace=wrap;html=1;fontStyle=1;" vertex="1" parent="1">
          <mxGeometry x="-230" y="970" width="70" height="40" as="geometry" />
        </mxCell>
        <mxCell id="a_MaoqPjlTy-i7oE1yRO-9" style="edgeStyle=orthogonalEdgeStyle;rounded=0;orthogonalLoop=1;jettySize=auto;html=1;exitX=1;exitY=0.5;exitDx=0;exitDy=0;entryX=0;entryY=0.5;entryDx=0;entryDy=0;" edge="1" parent="1" source="a_MaoqPjlTy-i7oE1yRO-10" target="a_MaoqPjlTy-i7oE1yRO-13">
          <mxGeometry relative="1" as="geometry" />
        </mxCell>
        <mxCell id="a_MaoqPjlTy-i7oE1yRO-10" value="fj" style="rounded=0;whiteSpace=wrap;html=1;fontStyle=1;" vertex="1" parent="1">
          <mxGeometry x="-230" y="1060" width="70" height="40" as="geometry" />
        </mxCell>
        <mxCell id="a_MaoqPjlTy-i7oE1yRO-11" style="edgeStyle=orthogonalEdgeStyle;rounded=0;orthogonalLoop=1;jettySize=auto;html=1;exitX=1;exitY=0.5;exitDx=0;exitDy=0;entryX=0;entryY=0.5;entryDx=0;entryDy=0;" edge="1" parent="1" source="a_MaoqPjlTy-i7oE1yRO-13" target="a_MaoqPjlTy-i7oE1yRO-16">
          <mxGeometry relative="1" as="geometry" />
        </mxCell>
        <mxCell id="a_MaoqPjlTy-i7oE1yRO-12" style="rounded=0;orthogonalLoop=1;jettySize=auto;html=1;exitX=0.5;exitY=0;exitDx=0;exitDy=0;entryX=0;entryY=0.75;entryDx=0;entryDy=0;" edge="1" parent="1" source="a_MaoqPjlTy-i7oE1yRO-13" target="a_MaoqPjlTy-i7oE1yRO-36">
          <mxGeometry relative="1" as="geometry" />
        </mxCell>
        <mxCell id="a_MaoqPjlTy-i7oE1yRO-13" value="zd" style="rounded=0;whiteSpace=wrap;html=1;fontStyle=1" vertex="1" parent="1">
          <mxGeometry x="-110" y="1060" width="70" height="40" as="geometry" />
        </mxCell>
        <mxCell id="a_MaoqPjlTy-i7oE1yRO-14" style="edgeStyle=orthogonalEdgeStyle;rounded=0;orthogonalLoop=1;jettySize=auto;html=1;exitX=1;exitY=0.5;exitDx=0;exitDy=0;entryX=0;entryY=0.5;entryDx=0;entryDy=0;" edge="1" parent="1" source="a_MaoqPjlTy-i7oE1yRO-16" target="a_MaoqPjlTy-i7oE1yRO-19">
          <mxGeometry relative="1" as="geometry" />
        </mxCell>
        <mxCell id="a_MaoqPjlTy-i7oE1yRO-15" style="rounded=0;orthogonalLoop=1;jettySize=auto;html=1;exitX=0.5;exitY=0;exitDx=0;exitDy=0;entryX=0.5;entryY=1;entryDx=0;entryDy=0;" edge="1" parent="1" source="a_MaoqPjlTy-i7oE1yRO-16" target="a_MaoqPjlTy-i7oE1yRO-36">
          <mxGeometry relative="1" as="geometry" />
        </mxCell>
        <mxCell id="a_MaoqPjlTy-i7oE1yRO-16" value="ln" style="rounded=0;whiteSpace=wrap;html=1;fontStyle=1" vertex="1" parent="1">
          <mxGeometry x="10" y="1060" width="70" height="40" as="geometry" />
        </mxCell>
        <mxCell id="a_MaoqPjlTy-i7oE1yRO-17" style="edgeStyle=orthogonalEdgeStyle;rounded=0;orthogonalLoop=1;jettySize=auto;html=1;exitX=1;exitY=0.5;exitDx=0;exitDy=0;entryX=0;entryY=0.5;entryDx=0;entryDy=0;" edge="1" parent="1" source="a_MaoqPjlTy-i7oE1yRO-19" target="a_MaoqPjlTy-i7oE1yRO-21">
          <mxGeometry relative="1" as="geometry" />
        </mxCell>
        <mxCell id="a_MaoqPjlTy-i7oE1yRO-18" style="rounded=0;orthogonalLoop=1;jettySize=auto;html=1;exitX=0.5;exitY=0;exitDx=0;exitDy=0;entryX=1;entryY=1;entryDx=0;entryDy=0;" edge="1" parent="1" source="a_MaoqPjlTy-i7oE1yRO-19" target="a_MaoqPjlTy-i7oE1yRO-36">
          <mxGeometry relative="1" as="geometry" />
        </mxCell>
        <mxCell id="a_MaoqPjlTy-i7oE1yRO-19" value="qq" style="rounded=0;whiteSpace=wrap;html=1;fontStyle=1" vertex="1" parent="1">
          <mxGeometry x="140" y="1060" width="70" height="40" as="geometry" />
        </mxCell>
        <mxCell id="a_MaoqPjlTy-i7oE1yRO-20" style="edgeStyle=orthogonalEdgeStyle;rounded=0;orthogonalLoop=1;jettySize=auto;html=1;exitX=0.5;exitY=0;exitDx=0;exitDy=0;entryX=0.5;entryY=1;entryDx=0;entryDy=0;" edge="1" parent="1" source="a_MaoqPjlTy-i7oE1yRO-21" target="a_MaoqPjlTy-i7oE1yRO-24">
          <mxGeometry relative="1" as="geometry" />
        </mxCell>
        <mxCell id="a_MaoqPjlTy-i7oE1yRO-21" value="qm" style="rounded=0;whiteSpace=wrap;html=1;fontStyle=1;" vertex="1" parent="1">
          <mxGeometry x="260" y="1060" width="70" height="40" as="geometry" />
        </mxCell>
        <mxCell id="a_MaoqPjlTy-i7oE1yRO-22" style="edgeStyle=orthogonalEdgeStyle;rounded=0;orthogonalLoop=1;jettySize=auto;html=1;exitX=0.5;exitY=0;exitDx=0;exitDy=0;entryX=0.5;entryY=1;entryDx=0;entryDy=0;" edge="1" parent="1" source="a_MaoqPjlTy-i7oE1yRO-24" target="a_MaoqPjlTy-i7oE1yRO-27">
          <mxGeometry relative="1" as="geometry" />
        </mxCell>
        <mxCell id="a_MaoqPjlTy-i7oE1yRO-23" style="rounded=0;orthogonalLoop=1;jettySize=auto;html=1;exitX=0;exitY=0.5;exitDx=0;exitDy=0;entryX=1;entryY=0.5;entryDx=0;entryDy=0;" edge="1" parent="1" source="a_MaoqPjlTy-i7oE1yRO-24" target="a_MaoqPjlTy-i7oE1yRO-36">
          <mxGeometry relative="1" as="geometry" />
        </mxCell>
        <mxCell id="a_MaoqPjlTy-i7oE1yRO-24" value="gm" style="rounded=0;whiteSpace=wrap;html=1;fontStyle=1" vertex="1" parent="1">
          <mxGeometry x="260" y="970" width="70" height="40" as="geometry" />
        </mxCell>
        <mxCell id="a_MaoqPjlTy-i7oE1yRO-25" style="edgeStyle=orthogonalEdgeStyle;rounded=0;orthogonalLoop=1;jettySize=auto;html=1;exitX=0;exitY=0.5;exitDx=0;exitDy=0;entryX=1;entryY=0.5;entryDx=0;entryDy=0;" edge="1" parent="1" source="a_MaoqPjlTy-i7oE1yRO-27" target="a_MaoqPjlTy-i7oE1yRO-30">
          <mxGeometry relative="1" as="geometry" />
        </mxCell>
        <mxCell id="a_MaoqPjlTy-i7oE1yRO-26" style="rounded=0;orthogonalLoop=1;jettySize=auto;html=1;exitX=0;exitY=1;exitDx=0;exitDy=0;entryX=1;entryY=0;entryDx=0;entryDy=0;" edge="1" parent="1" source="a_MaoqPjlTy-i7oE1yRO-27" target="a_MaoqPjlTy-i7oE1yRO-36">
          <mxGeometry relative="1" as="geometry" />
        </mxCell>
        <mxCell id="a_MaoqPjlTy-i7oE1yRO-27" value="tj" style="rounded=0;whiteSpace=wrap;html=1;fontStyle=1" vertex="1" parent="1">
          <mxGeometry x="260" y="890" width="70" height="40" as="geometry" />
        </mxCell>
        <mxCell id="a_MaoqPjlTy-i7oE1yRO-28" style="edgeStyle=orthogonalEdgeStyle;rounded=0;orthogonalLoop=1;jettySize=auto;html=1;exitX=0;exitY=0.5;exitDx=0;exitDy=0;entryX=1;entryY=0.5;entryDx=0;entryDy=0;" edge="1" parent="1" source="a_MaoqPjlTy-i7oE1yRO-30" target="a_MaoqPjlTy-i7oE1yRO-33">
          <mxGeometry relative="1" as="geometry" />
        </mxCell>
        <mxCell id="a_MaoqPjlTy-i7oE1yRO-29" style="rounded=0;orthogonalLoop=1;jettySize=auto;html=1;exitX=0.5;exitY=1;exitDx=0;exitDy=0;entryX=0.75;entryY=0;entryDx=0;entryDy=0;" edge="1" parent="1" source="a_MaoqPjlTy-i7oE1yRO-30" target="a_MaoqPjlTy-i7oE1yRO-36">
          <mxGeometry relative="1" as="geometry" />
        </mxCell>
        <mxCell id="a_MaoqPjlTy-i7oE1yRO-30" value="lc" style="rounded=0;whiteSpace=wrap;html=1;fontStyle=1" vertex="1" parent="1">
          <mxGeometry x="135" y="890" width="70" height="40" as="geometry" />
        </mxCell>
        <mxCell id="a_MaoqPjlTy-i7oE1yRO-31" style="edgeStyle=orthogonalEdgeStyle;rounded=0;orthogonalLoop=1;jettySize=auto;html=1;exitX=0;exitY=0.5;exitDx=0;exitDy=0;entryX=1;entryY=0.5;entryDx=0;entryDy=0;" edge="1" parent="1" source="a_MaoqPjlTy-i7oE1yRO-33" target="a_MaoqPjlTy-i7oE1yRO-35">
          <mxGeometry relative="1" as="geometry" />
        </mxCell>
        <mxCell id="a_MaoqPjlTy-i7oE1yRO-32" style="rounded=0;orthogonalLoop=1;jettySize=auto;html=1;exitX=0.5;exitY=1;exitDx=0;exitDy=0;entryX=0.5;entryY=0;entryDx=0;entryDy=0;" edge="1" parent="1" source="a_MaoqPjlTy-i7oE1yRO-33" target="a_MaoqPjlTy-i7oE1yRO-36">
          <mxGeometry relative="1" as="geometry" />
        </mxCell>
        <mxCell id="a_MaoqPjlTy-i7oE1yRO-33" value="fn" style="rounded=0;whiteSpace=wrap;html=1;fontStyle=1" vertex="1" parent="1">
          <mxGeometry x="10" y="890" width="70" height="40" as="geometry" />
        </mxCell>
        <mxCell id="a_MaoqPjlTy-i7oE1yRO-34" style="rounded=0;orthogonalLoop=1;jettySize=auto;html=1;exitX=0.5;exitY=1;exitDx=0;exitDy=0;entryX=0.25;entryY=0;entryDx=0;entryDy=0;" edge="1" parent="1" source="a_MaoqPjlTy-i7oE1yRO-35" target="a_MaoqPjlTy-i7oE1yRO-36">
          <mxGeometry relative="1" as="geometry" />
        </mxCell>
        <mxCell id="a_MaoqPjlTy-i7oE1yRO-35" value="pr" style="rounded=0;whiteSpace=wrap;html=1;fontStyle=1;" vertex="1" parent="1">
          <mxGeometry x="-110" y="890" width="70" height="40" as="geometry" />
        </mxCell>
        <mxCell id="a_MaoqPjlTy-i7oE1yRO-36" value="&amp;amp;gf" style="rounded=0;whiteSpace=wrap;html=1;fontStyle=1" vertex="1" parent="1">
          <mxGeometry x="10" y="980" width="70" height="40" as="geometry" />
        </mxCell>
        <mxCell id="a_MaoqPjlTy-i7oE1yRO-37" value="8" style="text;html=1;align=center;verticalAlign=middle;resizable=0;points=[];autosize=1;strokeColor=none;fillColor=none;" vertex="1" parent="1">
          <mxGeometry x="-85" y="1108" width="30" height="30" as="geometry" />
        </mxCell>
        <mxCell id="a_MaoqPjlTy-i7oE1yRO-38" value="4" style="text;html=1;align=center;verticalAlign=middle;resizable=0;points=[];autosize=1;strokeColor=none;fillColor=none;" vertex="1" parent="1">
          <mxGeometry x="-205" y="1098" width="30" height="30" as="geometry" />
        </mxCell>
        <mxCell id="a_MaoqPjlTy-i7oE1yRO-39" value="2" style="text;html=1;align=center;verticalAlign=middle;resizable=0;points=[];autosize=1;strokeColor=none;fillColor=none;" vertex="1" parent="1">
          <mxGeometry x="-275" y="968" width="30" height="30" as="geometry" />
        </mxCell>
        <mxCell id="a_MaoqPjlTy-i7oE1yRO-40" value="1" style="text;html=1;align=center;verticalAlign=middle;resizable=0;points=[];autosize=1;strokeColor=none;fillColor=none;" vertex="1" parent="1">
          <mxGeometry x="-245" y="858" width="30" height="30" as="geometry" />
        </mxCell>
        <mxCell id="a_MaoqPjlTy-i7oE1yRO-41" value="16" style="text;html=1;align=center;verticalAlign=middle;resizable=0;points=[];autosize=1;strokeColor=none;fillColor=none;" vertex="1" parent="1">
          <mxGeometry x="30" y="1108" width="40" height="30" as="geometry" />
        </mxCell>
        <mxCell id="a_MaoqPjlTy-i7oE1yRO-42" value="32" style="text;html=1;align=center;verticalAlign=middle;resizable=0;points=[];autosize=1;strokeColor=none;fillColor=none;" vertex="1" parent="1">
          <mxGeometry x="165" y="1108" width="40" height="30" as="geometry" />
        </mxCell>
        <mxCell id="a_MaoqPjlTy-i7oE1yRO-43" value="64" style="text;html=1;align=center;verticalAlign=middle;resizable=0;points=[];autosize=1;strokeColor=none;fillColor=none;" vertex="1" parent="1">
          <mxGeometry x="290" y="1108" width="40" height="30" as="geometry" />
        </mxCell>
        <mxCell id="a_MaoqPjlTy-i7oE1yRO-44" value="128" style="text;html=1;align=center;verticalAlign=middle;resizable=0;points=[];autosize=1;strokeColor=none;fillColor=none;" vertex="1" parent="1">
          <mxGeometry x="345" y="980" width="40" height="30" as="geometry" />
        </mxCell>
        <mxCell id="a_MaoqPjlTy-i7oE1yRO-45" value="256" style="text;html=1;align=center;verticalAlign=middle;resizable=0;points=[];autosize=1;strokeColor=none;fillColor=none;" vertex="1" parent="1">
          <mxGeometry x="350" y="898" width="40" height="30" as="geometry" />
        </mxCell>
        <mxCell id="a_MaoqPjlTy-i7oE1yRO-46" value="512" style="text;html=1;align=center;verticalAlign=middle;resizable=0;points=[];autosize=1;strokeColor=none;fillColor=none;" vertex="1" parent="1">
          <mxGeometry x="150" y="858" width="40" height="30" as="geometry" />
        </mxCell>
        <mxCell id="a_MaoqPjlTy-i7oE1yRO-47" value="1024" style="text;html=1;align=center;verticalAlign=middle;resizable=0;points=[];autosize=1;strokeColor=none;fillColor=none;" vertex="1" parent="1">
          <mxGeometry x="15" y="848" width="50" height="30" as="geometry" />
        </mxCell>
        <mxCell id="a_MaoqPjlTy-i7oE1yRO-48" value="2048" style="text;html=1;align=center;verticalAlign=middle;resizable=0;points=[];autosize=1;strokeColor=none;fillColor=none;" vertex="1" parent="1">
          <mxGeometry x="-100" y="858" width="50" height="30" as="geometry" />
        </mxCell>
        <mxCell id="a_MaoqPjlTy-i7oE1yRO-49" value="4027" style="text;html=1;align=center;verticalAlign=middle;resizable=0;points=[];autosize=1;strokeColor=none;fillColor=none;" vertex="1" parent="1">
          <mxGeometry x="-465" y="908" width="50" height="30" as="geometry" />
        </mxCell>
      </root>
    </mxGraphModel>
  </diagram>
  <diagram id="8If1AadiGQSUwruzxpRD" name="vc">
    <mxGraphModel dx="2044" dy="-391" grid="1" gridSize="10" guides="1" tooltips="1" connect="1" arrows="1" fold="1" page="1" pageScale="1" pageWidth="850" pageHeight="1100" math="0" shadow="0">
      <root>
        <mxCell id="0" />
        <mxCell id="1" parent="0" />
        <mxCell id="zRxm0ULw4DizW8yBJC1O-1" style="edgeStyle=orthogonalEdgeStyle;rounded=0;orthogonalLoop=1;jettySize=auto;html=1;exitX=0.5;exitY=0;exitDx=0;exitDy=0;entryX=0.5;entryY=1;entryDx=0;entryDy=0;" edge="1" parent="1" source="zRxm0ULw4DizW8yBJC1O-3" target="zRxm0ULw4DizW8yBJC1O-11">
          <mxGeometry relative="1" as="geometry" />
        </mxCell>
        <mxCell id="zRxm0ULw4DizW8yBJC1O-2" style="rounded=0;orthogonalLoop=1;jettySize=auto;html=1;exitX=0;exitY=0;exitDx=0;exitDy=0;entryX=1;entryY=1;entryDx=0;entryDy=0;" edge="1" parent="1" source="zRxm0ULw4DizW8yBJC1O-3" target="zRxm0ULw4DizW8yBJC1O-33">
          <mxGeometry relative="1" as="geometry" />
        </mxCell>
        <mxCell id="zRxm0ULw4DizW8yBJC1O-3" value="vz" style="rounded=0;whiteSpace=wrap;html=1;fontStyle=1" vertex="1" parent="1">
          <mxGeometry x="200" y="1350" width="70" height="40" as="geometry" />
        </mxCell>
        <mxCell id="zRxm0ULw4DizW8yBJC1O-4" style="rounded=0;orthogonalLoop=1;jettySize=auto;html=1;exitX=0.5;exitY=1;exitDx=0;exitDy=0;entryX=0;entryY=0;entryDx=0;entryDy=0;" edge="1" parent="1" source="zRxm0ULw4DizW8yBJC1O-5" target="zRxm0ULw4DizW8yBJC1O-33">
          <mxGeometry relative="1" as="geometry" />
        </mxCell>
        <mxCell id="zRxm0ULw4DizW8yBJC1O-5" value="qk" style="rounded=0;whiteSpace=wrap;html=1;fontStyle=1" vertex="1" parent="1">
          <mxGeometry x="-70" y="1210" width="70" height="40" as="geometry" />
        </mxCell>
        <mxCell id="zRxm0ULw4DizW8yBJC1O-6" style="edgeStyle=orthogonalEdgeStyle;rounded=0;orthogonalLoop=1;jettySize=auto;html=1;exitX=1;exitY=0.5;exitDx=0;exitDy=0;entryX=0;entryY=0.5;entryDx=0;entryDy=0;" edge="1" parent="1" source="zRxm0ULw4DizW8yBJC1O-8" target="zRxm0ULw4DizW8yBJC1O-22">
          <mxGeometry relative="1" as="geometry" />
        </mxCell>
        <mxCell id="zRxm0ULw4DizW8yBJC1O-7" style="rounded=0;orthogonalLoop=1;jettySize=auto;html=1;exitX=0.5;exitY=0;exitDx=0;exitDy=0;entryX=0.5;entryY=1;entryDx=0;entryDy=0;" edge="1" parent="1" source="zRxm0ULw4DizW8yBJC1O-8" target="zRxm0ULw4DizW8yBJC1O-33">
          <mxGeometry relative="1" as="geometry" />
        </mxCell>
        <mxCell id="zRxm0ULw4DizW8yBJC1O-8" value="sb" style="rounded=0;whiteSpace=wrap;html=1;fontStyle=1" vertex="1" parent="1">
          <mxGeometry x="20" y="1350" width="70" height="40" as="geometry" />
        </mxCell>
        <mxCell id="zRxm0ULw4DizW8yBJC1O-9" style="edgeStyle=orthogonalEdgeStyle;rounded=0;orthogonalLoop=1;jettySize=auto;html=1;exitX=0.5;exitY=0;exitDx=0;exitDy=0;entryX=0.5;entryY=1;entryDx=0;entryDy=0;" edge="1" parent="1" source="zRxm0ULw4DizW8yBJC1O-11" target="zRxm0ULw4DizW8yBJC1O-32">
          <mxGeometry relative="1" as="geometry" />
        </mxCell>
        <mxCell id="zRxm0ULw4DizW8yBJC1O-10" style="rounded=0;orthogonalLoop=1;jettySize=auto;html=1;exitX=0;exitY=0.5;exitDx=0;exitDy=0;entryX=1;entryY=0.5;entryDx=0;entryDy=0;" edge="1" parent="1" source="zRxm0ULw4DizW8yBJC1O-11" target="zRxm0ULw4DizW8yBJC1O-33">
          <mxGeometry relative="1" as="geometry" />
        </mxCell>
        <mxCell id="zRxm0ULw4DizW8yBJC1O-11" value="cr" style="rounded=0;whiteSpace=wrap;html=1;fontStyle=1" vertex="1" parent="1">
          <mxGeometry x="200" y="1280" width="70" height="40" as="geometry" />
        </mxCell>
        <mxCell id="zRxm0ULw4DizW8yBJC1O-12" style="edgeStyle=orthogonalEdgeStyle;rounded=0;orthogonalLoop=1;jettySize=auto;html=1;exitX=0;exitY=0.5;exitDx=0;exitDy=0;" edge="1" parent="1" source="zRxm0ULw4DizW8yBJC1O-14" target="zRxm0ULw4DizW8yBJC1O-5">
          <mxGeometry relative="1" as="geometry" />
        </mxCell>
        <mxCell id="zRxm0ULw4DizW8yBJC1O-13" style="rounded=0;orthogonalLoop=1;jettySize=auto;html=1;exitX=0.5;exitY=1;exitDx=0;exitDy=0;entryX=0.5;entryY=0;entryDx=0;entryDy=0;" edge="1" parent="1" source="zRxm0ULw4DizW8yBJC1O-14" target="zRxm0ULw4DizW8yBJC1O-33">
          <mxGeometry relative="1" as="geometry" />
        </mxCell>
        <mxCell id="zRxm0ULw4DizW8yBJC1O-14" value="pm" style="rounded=0;whiteSpace=wrap;html=1;fontStyle=1" vertex="1" parent="1">
          <mxGeometry x="20" y="1210" width="70" height="40" as="geometry" />
        </mxCell>
        <mxCell id="zRxm0ULw4DizW8yBJC1O-15" style="edgeStyle=orthogonalEdgeStyle;rounded=0;orthogonalLoop=1;jettySize=auto;html=1;exitX=0;exitY=0.5;exitDx=0;exitDy=0;entryX=1;entryY=0.5;entryDx=0;entryDy=0;" edge="1" parent="1" source="zRxm0ULw4DizW8yBJC1O-17" target="zRxm0ULw4DizW8yBJC1O-14">
          <mxGeometry relative="1" as="geometry" />
        </mxCell>
        <mxCell id="zRxm0ULw4DizW8yBJC1O-16" style="rounded=0;orthogonalLoop=1;jettySize=auto;html=1;exitX=0.5;exitY=1;exitDx=0;exitDy=0;entryX=1;entryY=0;entryDx=0;entryDy=0;" edge="1" parent="1" source="zRxm0ULw4DizW8yBJC1O-17" target="zRxm0ULw4DizW8yBJC1O-33">
          <mxGeometry relative="1" as="geometry" />
        </mxCell>
        <mxCell id="zRxm0ULw4DizW8yBJC1O-17" value="cd" style="rounded=0;whiteSpace=wrap;html=1;fontStyle=1" vertex="1" parent="1">
          <mxGeometry x="110" y="1210" width="70" height="40" as="geometry" />
        </mxCell>
        <mxCell id="zRxm0ULw4DizW8yBJC1O-18" style="edgeStyle=orthogonalEdgeStyle;rounded=0;orthogonalLoop=1;jettySize=auto;html=1;exitX=0.5;exitY=1;exitDx=0;exitDy=0;entryX=0.5;entryY=0;entryDx=0;entryDy=0;" edge="1" parent="1" source="zRxm0ULw4DizW8yBJC1O-20" target="zRxm0ULw4DizW8yBJC1O-28">
          <mxGeometry relative="1" as="geometry" />
        </mxCell>
        <mxCell id="zRxm0ULw4DizW8yBJC1O-19" style="rounded=0;orthogonalLoop=1;jettySize=auto;html=1;exitX=1;exitY=1;exitDx=0;exitDy=0;entryX=0;entryY=0.25;entryDx=0;entryDy=0;" edge="1" parent="1" source="zRxm0ULw4DizW8yBJC1O-20" target="zRxm0ULw4DizW8yBJC1O-33">
          <mxGeometry relative="1" as="geometry" />
        </mxCell>
        <mxCell id="zRxm0ULw4DizW8yBJC1O-20" value="hd" style="rounded=0;whiteSpace=wrap;html=1;fontStyle=1" vertex="1" parent="1">
          <mxGeometry x="-170" y="1210" width="70" height="40" as="geometry" />
        </mxCell>
        <mxCell id="zRxm0ULw4DizW8yBJC1O-21" style="edgeStyle=orthogonalEdgeStyle;rounded=0;orthogonalLoop=1;jettySize=auto;html=1;exitX=1;exitY=0.5;exitDx=0;exitDy=0;entryX=0;entryY=0.5;entryDx=0;entryDy=0;" edge="1" parent="1" source="zRxm0ULw4DizW8yBJC1O-22" target="zRxm0ULw4DizW8yBJC1O-3">
          <mxGeometry relative="1" as="geometry" />
        </mxCell>
        <mxCell id="zRxm0ULw4DizW8yBJC1O-22" value="ks" style="rounded=0;whiteSpace=wrap;html=1;fontStyle=1;" vertex="1" parent="1">
          <mxGeometry x="110" y="1350" width="70" height="40" as="geometry" />
        </mxCell>
        <mxCell id="zRxm0ULw4DizW8yBJC1O-23" style="edgeStyle=orthogonalEdgeStyle;rounded=0;orthogonalLoop=1;jettySize=auto;html=1;exitX=1;exitY=0.5;exitDx=0;exitDy=0;entryX=0;entryY=0.5;entryDx=0;entryDy=0;" edge="1" parent="1" source="zRxm0ULw4DizW8yBJC1O-24" target="zRxm0ULw4DizW8yBJC1O-8">
          <mxGeometry relative="1" as="geometry" />
        </mxCell>
        <mxCell id="zRxm0ULw4DizW8yBJC1O-24" value="lr" style="rounded=0;whiteSpace=wrap;html=1;fontStyle=1;" vertex="1" parent="1">
          <mxGeometry x="-70" y="1350" width="70" height="40" as="geometry" />
        </mxCell>
        <mxCell id="zRxm0ULw4DizW8yBJC1O-25" style="edgeStyle=orthogonalEdgeStyle;rounded=0;orthogonalLoop=1;jettySize=auto;html=1;exitX=1;exitY=0.5;exitDx=0;exitDy=0;" edge="1" parent="1" source="zRxm0ULw4DizW8yBJC1O-26" target="zRxm0ULw4DizW8yBJC1O-24">
          <mxGeometry relative="1" as="geometry" />
        </mxCell>
        <mxCell id="zRxm0ULw4DizW8yBJC1O-26" value="hv" style="rounded=0;whiteSpace=wrap;html=1;fontStyle=1;" vertex="1" parent="1">
          <mxGeometry x="-170" y="1350" width="70" height="40" as="geometry" />
        </mxCell>
        <mxCell id="zRxm0ULw4DizW8yBJC1O-27" style="edgeStyle=orthogonalEdgeStyle;rounded=0;orthogonalLoop=1;jettySize=auto;html=1;exitX=0.5;exitY=1;exitDx=0;exitDy=0;" edge="1" parent="1" source="zRxm0ULw4DizW8yBJC1O-28" target="zRxm0ULw4DizW8yBJC1O-26">
          <mxGeometry relative="1" as="geometry" />
        </mxCell>
        <mxCell id="zRxm0ULw4DizW8yBJC1O-28" value="nh" style="rounded=0;whiteSpace=wrap;html=1;fontStyle=1;" vertex="1" parent="1">
          <mxGeometry x="-170" y="1280" width="70" height="40" as="geometry" />
        </mxCell>
        <mxCell id="zRxm0ULw4DizW8yBJC1O-29" style="edgeStyle=orthogonalEdgeStyle;rounded=0;orthogonalLoop=1;jettySize=auto;html=1;exitX=1;exitY=0.5;exitDx=0;exitDy=0;entryX=0;entryY=0.5;entryDx=0;entryDy=0;" edge="1" parent="1" source="zRxm0ULw4DizW8yBJC1O-30" target="zRxm0ULw4DizW8yBJC1O-20">
          <mxGeometry relative="1" as="geometry" />
        </mxCell>
        <mxCell id="zRxm0ULw4DizW8yBJC1O-30" value="broadcaster" style="rounded=0;whiteSpace=wrap;html=1;fontStyle=1" vertex="1" parent="1">
          <mxGeometry x="-270" y="1210" width="70" height="40" as="geometry" />
        </mxCell>
        <mxCell id="zRxm0ULw4DizW8yBJC1O-31" style="edgeStyle=orthogonalEdgeStyle;rounded=0;orthogonalLoop=1;jettySize=auto;html=1;exitX=0;exitY=0.5;exitDx=0;exitDy=0;entryX=1;entryY=0.5;entryDx=0;entryDy=0;" edge="1" parent="1" source="zRxm0ULw4DizW8yBJC1O-32" target="zRxm0ULw4DizW8yBJC1O-17">
          <mxGeometry relative="1" as="geometry" />
        </mxCell>
        <mxCell id="zRxm0ULw4DizW8yBJC1O-32" value="gx" style="rounded=0;whiteSpace=wrap;html=1;fontStyle=1;" vertex="1" parent="1">
          <mxGeometry x="200" y="1210" width="70" height="40" as="geometry" />
        </mxCell>
        <mxCell id="zRxm0ULw4DizW8yBJC1O-33" value="&amp;amp;vc" style="rounded=0;whiteSpace=wrap;html=1;fontStyle=1" vertex="1" parent="1">
          <mxGeometry x="20" y="1280" width="70" height="40" as="geometry" />
        </mxCell>
        <mxCell id="zRxm0ULw4DizW8yBJC1O-34" value="3793" style="text;html=1;align=center;verticalAlign=middle;resizable=0;points=[];autosize=1;strokeColor=none;fillColor=none;" vertex="1" parent="1">
          <mxGeometry x="-340" y="1230" width="50" height="30" as="geometry" />
        </mxCell>
        <mxCell id="zRxm0ULw4DizW8yBJC1O-35" value="4" style="text;html=1;align=center;verticalAlign=middle;resizable=0;points=[];autosize=1;strokeColor=none;fillColor=none;" vertex="1" parent="1">
          <mxGeometry x="-145" y="1398" width="30" height="30" as="geometry" />
        </mxCell>
        <mxCell id="zRxm0ULw4DizW8yBJC1O-36" value="8" style="text;html=1;align=center;verticalAlign=middle;resizable=0;points=[];autosize=1;strokeColor=none;fillColor=none;" vertex="1" parent="1">
          <mxGeometry x="-55" y="1388" width="30" height="30" as="geometry" />
        </mxCell>
        <mxCell id="zRxm0ULw4DizW8yBJC1O-37" value="16" style="text;html=1;align=center;verticalAlign=middle;resizable=0;points=[];autosize=1;strokeColor=none;fillColor=none;" vertex="1" parent="1">
          <mxGeometry x="40" y="1398" width="40" height="30" as="geometry" />
        </mxCell>
        <mxCell id="zRxm0ULw4DizW8yBJC1O-38" value="32" style="text;html=1;align=center;verticalAlign=middle;resizable=0;points=[];autosize=1;strokeColor=none;fillColor=none;" vertex="1" parent="1">
          <mxGeometry x="110" y="1398" width="40" height="30" as="geometry" />
        </mxCell>
        <mxCell id="zRxm0ULw4DizW8yBJC1O-39" value="64" style="text;html=1;align=center;verticalAlign=middle;resizable=0;points=[];autosize=1;strokeColor=none;fillColor=none;" vertex="1" parent="1">
          <mxGeometry x="210" y="1388" width="40" height="30" as="geometry" />
        </mxCell>
      </root>
    </mxGraphModel>
  </diagram>
  <diagram id="v40QdKVTreec8HpC226i" name="db">
    <mxGraphModel dx="2044" dy="-391" grid="1" gridSize="10" guides="1" tooltips="1" connect="1" arrows="1" fold="1" page="1" pageScale="1" pageWidth="850" pageHeight="1100" math="0" shadow="0">
      <root>
        <mxCell id="0" />
        <mxCell id="1" parent="0" />
        <mxCell id="cFusy2m4-B8imPZsZdp--1" style="edgeStyle=orthogonalEdgeStyle;rounded=0;orthogonalLoop=1;jettySize=auto;html=1;exitX=0.5;exitY=0;exitDx=0;exitDy=0;entryX=0.5;entryY=1;entryDx=0;entryDy=0;" edge="1" parent="1" source="cFusy2m4-B8imPZsZdp--3" target="cFusy2m4-B8imPZsZdp--10">
          <mxGeometry relative="1" as="geometry" />
        </mxCell>
        <mxCell id="cFusy2m4-B8imPZsZdp--2" style="rounded=0;orthogonalLoop=1;jettySize=auto;html=1;exitX=0;exitY=0;exitDx=0;exitDy=0;entryX=1;entryY=1;entryDx=0;entryDy=0;" edge="1" parent="1" source="cFusy2m4-B8imPZsZdp--3" target="cFusy2m4-B8imPZsZdp--34">
          <mxGeometry relative="1" as="geometry" />
        </mxCell>
        <mxCell id="cFusy2m4-B8imPZsZdp--3" value="pl" style="rounded=0;whiteSpace=wrap;html=1;fontStyle=1" vertex="1" parent="1">
          <mxGeometry x="200" y="1590" width="70" height="40" as="geometry" />
        </mxCell>
        <mxCell id="cFusy2m4-B8imPZsZdp--4" style="rounded=0;orthogonalLoop=1;jettySize=auto;html=1;exitX=0.5;exitY=1;exitDx=0;exitDy=0;entryX=0;entryY=0;entryDx=0;entryDy=0;" edge="1" parent="1" source="cFusy2m4-B8imPZsZdp--5" target="cFusy2m4-B8imPZsZdp--34">
          <mxGeometry relative="1" as="geometry" />
        </mxCell>
        <mxCell id="cFusy2m4-B8imPZsZdp--5" value="xm" style="rounded=0;whiteSpace=wrap;html=1;fontStyle=1" vertex="1" parent="1">
          <mxGeometry x="-70" y="1450" width="70" height="40" as="geometry" />
        </mxCell>
        <mxCell id="cFusy2m4-B8imPZsZdp--6" style="edgeStyle=orthogonalEdgeStyle;rounded=0;orthogonalLoop=1;jettySize=auto;html=1;exitX=1;exitY=0.5;exitDx=0;exitDy=0;entryX=0;entryY=0.5;entryDx=0;entryDy=0;" edge="1" parent="1" source="cFusy2m4-B8imPZsZdp--8" target="cFusy2m4-B8imPZsZdp--21">
          <mxGeometry relative="1" as="geometry" />
        </mxCell>
        <mxCell id="cFusy2m4-B8imPZsZdp--7" style="rounded=0;orthogonalLoop=1;jettySize=auto;html=1;exitX=0.5;exitY=0;exitDx=0;exitDy=0;entryX=0.5;entryY=1;entryDx=0;entryDy=0;" edge="1" parent="1" source="cFusy2m4-B8imPZsZdp--8" target="cFusy2m4-B8imPZsZdp--34">
          <mxGeometry relative="1" as="geometry" />
        </mxCell>
        <mxCell id="cFusy2m4-B8imPZsZdp--8" value="nn" style="rounded=0;whiteSpace=wrap;html=1;fontStyle=1" vertex="1" parent="1">
          <mxGeometry x="20" y="1590" width="70" height="40" as="geometry" />
        </mxCell>
        <mxCell id="cFusy2m4-B8imPZsZdp--9" style="edgeStyle=orthogonalEdgeStyle;rounded=0;orthogonalLoop=1;jettySize=auto;html=1;exitX=0.5;exitY=0;exitDx=0;exitDy=0;entryX=0.5;entryY=1;entryDx=0;entryDy=0;" edge="1" parent="1" source="cFusy2m4-B8imPZsZdp--10" target="cFusy2m4-B8imPZsZdp--33">
          <mxGeometry relative="1" as="geometry" />
        </mxCell>
        <mxCell id="cFusy2m4-B8imPZsZdp--10" value="sf" style="rounded=0;whiteSpace=wrap;html=1;fontStyle=1" vertex="1" parent="1">
          <mxGeometry x="200" y="1520" width="70" height="40" as="geometry" />
        </mxCell>
        <mxCell id="cFusy2m4-B8imPZsZdp--11" style="edgeStyle=orthogonalEdgeStyle;rounded=0;orthogonalLoop=1;jettySize=auto;html=1;exitX=0;exitY=0.5;exitDx=0;exitDy=0;" edge="1" parent="1" source="cFusy2m4-B8imPZsZdp--13" target="cFusy2m4-B8imPZsZdp--5">
          <mxGeometry relative="1" as="geometry" />
        </mxCell>
        <mxCell id="cFusy2m4-B8imPZsZdp--12" style="rounded=0;orthogonalLoop=1;jettySize=auto;html=1;exitX=0.5;exitY=1;exitDx=0;exitDy=0;entryX=0.5;entryY=0;entryDx=0;entryDy=0;" edge="1" parent="1" source="cFusy2m4-B8imPZsZdp--13" target="cFusy2m4-B8imPZsZdp--34">
          <mxGeometry relative="1" as="geometry" />
        </mxCell>
        <mxCell id="cFusy2m4-B8imPZsZdp--13" value="qj" style="rounded=0;whiteSpace=wrap;html=1;fontStyle=1" vertex="1" parent="1">
          <mxGeometry x="20" y="1450" width="70" height="40" as="geometry" />
        </mxCell>
        <mxCell id="cFusy2m4-B8imPZsZdp--14" style="edgeStyle=orthogonalEdgeStyle;rounded=0;orthogonalLoop=1;jettySize=auto;html=1;exitX=0;exitY=0.5;exitDx=0;exitDy=0;entryX=1;entryY=0.5;entryDx=0;entryDy=0;" edge="1" parent="1" source="cFusy2m4-B8imPZsZdp--16" target="cFusy2m4-B8imPZsZdp--13">
          <mxGeometry relative="1" as="geometry" />
        </mxCell>
        <mxCell id="cFusy2m4-B8imPZsZdp--15" style="rounded=0;orthogonalLoop=1;jettySize=auto;html=1;exitX=0.5;exitY=1;exitDx=0;exitDy=0;entryX=1;entryY=0;entryDx=0;entryDy=0;" edge="1" parent="1" source="cFusy2m4-B8imPZsZdp--16" target="cFusy2m4-B8imPZsZdp--34">
          <mxGeometry relative="1" as="geometry" />
        </mxCell>
        <mxCell id="cFusy2m4-B8imPZsZdp--16" value="jz" style="rounded=0;whiteSpace=wrap;html=1;fontStyle=1" vertex="1" parent="1">
          <mxGeometry x="110" y="1450" width="70" height="40" as="geometry" />
        </mxCell>
        <mxCell id="cFusy2m4-B8imPZsZdp--17" style="edgeStyle=orthogonalEdgeStyle;rounded=0;orthogonalLoop=1;jettySize=auto;html=1;exitX=0.5;exitY=1;exitDx=0;exitDy=0;entryX=0.5;entryY=0;entryDx=0;entryDy=0;" edge="1" parent="1" source="cFusy2m4-B8imPZsZdp--19" target="cFusy2m4-B8imPZsZdp--28">
          <mxGeometry relative="1" as="geometry" />
        </mxCell>
        <mxCell id="cFusy2m4-B8imPZsZdp--18" style="rounded=0;orthogonalLoop=1;jettySize=auto;html=1;exitX=1;exitY=1;exitDx=0;exitDy=0;entryX=0;entryY=0.25;entryDx=0;entryDy=0;" edge="1" parent="1" source="cFusy2m4-B8imPZsZdp--19" target="cFusy2m4-B8imPZsZdp--34">
          <mxGeometry relative="1" as="geometry" />
        </mxCell>
        <mxCell id="cFusy2m4-B8imPZsZdp--19" value="ch" style="rounded=0;whiteSpace=wrap;html=1;fontStyle=1" vertex="1" parent="1">
          <mxGeometry x="-170" y="1450" width="70" height="40" as="geometry" />
        </mxCell>
        <mxCell id="cFusy2m4-B8imPZsZdp--20" style="edgeStyle=orthogonalEdgeStyle;rounded=0;orthogonalLoop=1;jettySize=auto;html=1;exitX=1;exitY=0.5;exitDx=0;exitDy=0;entryX=0;entryY=0.5;entryDx=0;entryDy=0;" edge="1" parent="1" source="cFusy2m4-B8imPZsZdp--21" target="cFusy2m4-B8imPZsZdp--3">
          <mxGeometry relative="1" as="geometry" />
        </mxCell>
        <mxCell id="cFusy2m4-B8imPZsZdp--21" value="ff" style="rounded=0;whiteSpace=wrap;html=1;fontStyle=1;" vertex="1" parent="1">
          <mxGeometry x="110" y="1590" width="70" height="40" as="geometry" />
        </mxCell>
        <mxCell id="cFusy2m4-B8imPZsZdp--22" style="edgeStyle=orthogonalEdgeStyle;rounded=0;orthogonalLoop=1;jettySize=auto;html=1;exitX=1;exitY=0.5;exitDx=0;exitDy=0;entryX=0;entryY=0.5;entryDx=0;entryDy=0;" edge="1" parent="1" source="cFusy2m4-B8imPZsZdp--23" target="cFusy2m4-B8imPZsZdp--8">
          <mxGeometry relative="1" as="geometry" />
        </mxCell>
        <mxCell id="cFusy2m4-B8imPZsZdp--23" value="cc" style="rounded=0;whiteSpace=wrap;html=1;fontStyle=1;" vertex="1" parent="1">
          <mxGeometry x="-70" y="1590" width="70" height="40" as="geometry" />
        </mxCell>
        <mxCell id="cFusy2m4-B8imPZsZdp--24" style="edgeStyle=orthogonalEdgeStyle;rounded=0;orthogonalLoop=1;jettySize=auto;html=1;exitX=1;exitY=0.5;exitDx=0;exitDy=0;" edge="1" parent="1" source="cFusy2m4-B8imPZsZdp--25" target="cFusy2m4-B8imPZsZdp--23">
          <mxGeometry relative="1" as="geometry" />
        </mxCell>
        <mxCell id="cFusy2m4-B8imPZsZdp--25" value="ds" style="rounded=0;whiteSpace=wrap;html=1;fontStyle=1;" vertex="1" parent="1">
          <mxGeometry x="-170" y="1590" width="70" height="40" as="geometry" />
        </mxCell>
        <mxCell id="cFusy2m4-B8imPZsZdp--26" style="edgeStyle=orthogonalEdgeStyle;rounded=0;orthogonalLoop=1;jettySize=auto;html=1;exitX=0.5;exitY=1;exitDx=0;exitDy=0;" edge="1" parent="1" source="cFusy2m4-B8imPZsZdp--28" target="cFusy2m4-B8imPZsZdp--25">
          <mxGeometry relative="1" as="geometry" />
        </mxCell>
        <mxCell id="cFusy2m4-B8imPZsZdp--27" style="edgeStyle=orthogonalEdgeStyle;rounded=0;orthogonalLoop=1;jettySize=auto;html=1;exitX=1;exitY=0.5;exitDx=0;exitDy=0;entryX=0;entryY=0.5;entryDx=0;entryDy=0;" edge="1" parent="1" source="cFusy2m4-B8imPZsZdp--28" target="cFusy2m4-B8imPZsZdp--34">
          <mxGeometry relative="1" as="geometry" />
        </mxCell>
        <mxCell id="cFusy2m4-B8imPZsZdp--28" value="mc" style="rounded=0;whiteSpace=wrap;html=1;fontStyle=1;" vertex="1" parent="1">
          <mxGeometry x="-170" y="1520" width="70" height="40" as="geometry" />
        </mxCell>
        <mxCell id="cFusy2m4-B8imPZsZdp--29" style="edgeStyle=orthogonalEdgeStyle;rounded=0;orthogonalLoop=1;jettySize=auto;html=1;exitX=1;exitY=0.5;exitDx=0;exitDy=0;entryX=0;entryY=0.5;entryDx=0;entryDy=0;" edge="1" parent="1" source="cFusy2m4-B8imPZsZdp--30" target="cFusy2m4-B8imPZsZdp--19">
          <mxGeometry relative="1" as="geometry" />
        </mxCell>
        <mxCell id="cFusy2m4-B8imPZsZdp--30" value="broadcaster" style="rounded=0;whiteSpace=wrap;html=1;fontStyle=1" vertex="1" parent="1">
          <mxGeometry x="-270" y="1450" width="70" height="40" as="geometry" />
        </mxCell>
        <mxCell id="cFusy2m4-B8imPZsZdp--31" style="edgeStyle=orthogonalEdgeStyle;rounded=0;orthogonalLoop=1;jettySize=auto;html=1;exitX=0;exitY=0.5;exitDx=0;exitDy=0;entryX=1;entryY=0.5;entryDx=0;entryDy=0;" edge="1" parent="1" source="cFusy2m4-B8imPZsZdp--33" target="cFusy2m4-B8imPZsZdp--16">
          <mxGeometry relative="1" as="geometry" />
        </mxCell>
        <mxCell id="cFusy2m4-B8imPZsZdp--32" style="rounded=0;orthogonalLoop=1;jettySize=auto;html=1;exitX=0;exitY=1;exitDx=0;exitDy=0;entryX=1;entryY=0.5;entryDx=0;entryDy=0;" edge="1" parent="1" source="cFusy2m4-B8imPZsZdp--33" target="cFusy2m4-B8imPZsZdp--34">
          <mxGeometry relative="1" as="geometry" />
        </mxCell>
        <mxCell id="cFusy2m4-B8imPZsZdp--33" value="bp" style="rounded=0;whiteSpace=wrap;html=1;fontStyle=1;" vertex="1" parent="1">
          <mxGeometry x="200" y="1450" width="70" height="40" as="geometry" />
        </mxCell>
        <mxCell id="cFusy2m4-B8imPZsZdp--34" value="&amp;amp;db" style="rounded=0;whiteSpace=wrap;html=1;fontStyle=1" vertex="1" parent="1">
          <mxGeometry x="20" y="1520" width="70" height="40" as="geometry" />
        </mxCell>
        <mxCell id="cFusy2m4-B8imPZsZdp--35" value="3923" style="text;html=1;align=center;verticalAlign=middle;resizable=0;points=[];autosize=1;strokeColor=none;fillColor=none;" vertex="1" parent="1">
          <mxGeometry x="-290" y="1520" width="50" height="30" as="geometry" />
        </mxCell>
      </root>
    </mxGraphModel>
  </diagram>
  <diagram id="5gM1Su53xoKGeOMIir44" name="qx">
    <mxGraphModel dx="2044" dy="-391" grid="1" gridSize="10" guides="1" tooltips="1" connect="1" arrows="1" fold="1" page="1" pageScale="1" pageWidth="850" pageHeight="1100" math="0" shadow="0">
      <root>
        <mxCell id="0" />
        <mxCell id="1" parent="0" />
        <mxCell id="jXg50FpIQoOA4uiVj2zu-1" style="edgeStyle=orthogonalEdgeStyle;rounded=0;orthogonalLoop=1;jettySize=auto;html=1;exitX=0.5;exitY=0;exitDx=0;exitDy=0;entryX=0.5;entryY=1;entryDx=0;entryDy=0;" edge="1" parent="1" source="jXg50FpIQoOA4uiVj2zu-2" target="jXg50FpIQoOA4uiVj2zu-10">
          <mxGeometry relative="1" as="geometry" />
        </mxCell>
        <mxCell id="jXg50FpIQoOA4uiVj2zu-2" value="xz" style="rounded=0;whiteSpace=wrap;html=1;fontStyle=1" vertex="1" parent="1">
          <mxGeometry x="200" y="1810" width="70" height="40" as="geometry" />
        </mxCell>
        <mxCell id="jXg50FpIQoOA4uiVj2zu-3" style="rounded=0;orthogonalLoop=1;jettySize=auto;html=1;exitX=0.5;exitY=1;exitDx=0;exitDy=0;entryX=0;entryY=0;entryDx=0;entryDy=0;" edge="1" parent="1" source="jXg50FpIQoOA4uiVj2zu-4" target="jXg50FpIQoOA4uiVj2zu-34">
          <mxGeometry relative="1" as="geometry" />
        </mxCell>
        <mxCell id="jXg50FpIQoOA4uiVj2zu-4" value="pf" style="rounded=0;whiteSpace=wrap;html=1;fontStyle=1" vertex="1" parent="1">
          <mxGeometry x="-70" y="1670" width="70" height="40" as="geometry" />
        </mxCell>
        <mxCell id="jXg50FpIQoOA4uiVj2zu-5" style="edgeStyle=orthogonalEdgeStyle;rounded=0;orthogonalLoop=1;jettySize=auto;html=1;exitX=1;exitY=0.5;exitDx=0;exitDy=0;entryX=0;entryY=0.5;entryDx=0;entryDy=0;" edge="1" parent="1" source="jXg50FpIQoOA4uiVj2zu-7" target="jXg50FpIQoOA4uiVj2zu-21">
          <mxGeometry relative="1" as="geometry" />
        </mxCell>
        <mxCell id="jXg50FpIQoOA4uiVj2zu-6" style="rounded=0;orthogonalLoop=1;jettySize=auto;html=1;exitX=0.5;exitY=0;exitDx=0;exitDy=0;entryX=0.5;entryY=1;entryDx=0;entryDy=0;" edge="1" parent="1" source="jXg50FpIQoOA4uiVj2zu-7" target="jXg50FpIQoOA4uiVj2zu-34">
          <mxGeometry relative="1" as="geometry" />
        </mxCell>
        <mxCell id="jXg50FpIQoOA4uiVj2zu-7" value="rz" style="rounded=0;whiteSpace=wrap;html=1;fontStyle=1" vertex="1" parent="1">
          <mxGeometry x="20" y="1810" width="70" height="40" as="geometry" />
        </mxCell>
        <mxCell id="jXg50FpIQoOA4uiVj2zu-8" style="edgeStyle=orthogonalEdgeStyle;rounded=0;orthogonalLoop=1;jettySize=auto;html=1;exitX=0.5;exitY=0;exitDx=0;exitDy=0;entryX=0.5;entryY=1;entryDx=0;entryDy=0;" edge="1" parent="1" source="jXg50FpIQoOA4uiVj2zu-10" target="jXg50FpIQoOA4uiVj2zu-33">
          <mxGeometry relative="1" as="geometry" />
        </mxCell>
        <mxCell id="jXg50FpIQoOA4uiVj2zu-9" style="rounded=0;orthogonalLoop=1;jettySize=auto;html=1;exitX=0;exitY=0.5;exitDx=0;exitDy=0;entryX=1;entryY=0.75;entryDx=0;entryDy=0;" edge="1" parent="1" source="jXg50FpIQoOA4uiVj2zu-10" target="jXg50FpIQoOA4uiVj2zu-34">
          <mxGeometry relative="1" as="geometry" />
        </mxCell>
        <mxCell id="jXg50FpIQoOA4uiVj2zu-10" value="jd" style="rounded=0;whiteSpace=wrap;html=1;fontStyle=1" vertex="1" parent="1">
          <mxGeometry x="200" y="1740" width="70" height="40" as="geometry" />
        </mxCell>
        <mxCell id="jXg50FpIQoOA4uiVj2zu-11" style="edgeStyle=orthogonalEdgeStyle;rounded=0;orthogonalLoop=1;jettySize=auto;html=1;exitX=0;exitY=0.5;exitDx=0;exitDy=0;" edge="1" parent="1" source="jXg50FpIQoOA4uiVj2zu-13" target="jXg50FpIQoOA4uiVj2zu-4">
          <mxGeometry relative="1" as="geometry" />
        </mxCell>
        <mxCell id="jXg50FpIQoOA4uiVj2zu-12" style="rounded=0;orthogonalLoop=1;jettySize=auto;html=1;exitX=0.5;exitY=1;exitDx=0;exitDy=0;entryX=0.5;entryY=0;entryDx=0;entryDy=0;" edge="1" parent="1" source="jXg50FpIQoOA4uiVj2zu-13" target="jXg50FpIQoOA4uiVj2zu-34">
          <mxGeometry relative="1" as="geometry" />
        </mxCell>
        <mxCell id="jXg50FpIQoOA4uiVj2zu-13" value="bf" style="rounded=0;whiteSpace=wrap;html=1;fontStyle=1" vertex="1" parent="1">
          <mxGeometry x="20" y="1670" width="70" height="40" as="geometry" />
        </mxCell>
        <mxCell id="jXg50FpIQoOA4uiVj2zu-14" style="edgeStyle=orthogonalEdgeStyle;rounded=0;orthogonalLoop=1;jettySize=auto;html=1;exitX=0;exitY=0.5;exitDx=0;exitDy=0;entryX=1;entryY=0.5;entryDx=0;entryDy=0;" edge="1" parent="1" source="jXg50FpIQoOA4uiVj2zu-16" target="jXg50FpIQoOA4uiVj2zu-13">
          <mxGeometry relative="1" as="geometry" />
        </mxCell>
        <mxCell id="jXg50FpIQoOA4uiVj2zu-15" style="rounded=0;orthogonalLoop=1;jettySize=auto;html=1;exitX=0.5;exitY=1;exitDx=0;exitDy=0;entryX=1;entryY=0;entryDx=0;entryDy=0;" edge="1" parent="1" source="jXg50FpIQoOA4uiVj2zu-16" target="jXg50FpIQoOA4uiVj2zu-34">
          <mxGeometry relative="1" as="geometry" />
        </mxCell>
        <mxCell id="jXg50FpIQoOA4uiVj2zu-16" value="cl" style="rounded=0;whiteSpace=wrap;html=1;fontStyle=1" vertex="1" parent="1">
          <mxGeometry x="110" y="1670" width="70" height="40" as="geometry" />
        </mxCell>
        <mxCell id="jXg50FpIQoOA4uiVj2zu-17" style="edgeStyle=orthogonalEdgeStyle;rounded=0;orthogonalLoop=1;jettySize=auto;html=1;exitX=0.5;exitY=1;exitDx=0;exitDy=0;entryX=0.5;entryY=0;entryDx=0;entryDy=0;" edge="1" parent="1" source="jXg50FpIQoOA4uiVj2zu-19" target="jXg50FpIQoOA4uiVj2zu-29">
          <mxGeometry relative="1" as="geometry" />
        </mxCell>
        <mxCell id="jXg50FpIQoOA4uiVj2zu-18" style="rounded=0;orthogonalLoop=1;jettySize=auto;html=1;exitX=1;exitY=1;exitDx=0;exitDy=0;entryX=0;entryY=0.25;entryDx=0;entryDy=0;" edge="1" parent="1" source="jXg50FpIQoOA4uiVj2zu-19" target="jXg50FpIQoOA4uiVj2zu-34">
          <mxGeometry relative="1" as="geometry" />
        </mxCell>
        <mxCell id="jXg50FpIQoOA4uiVj2zu-19" value="bx" style="rounded=0;whiteSpace=wrap;html=1;fontStyle=1" vertex="1" parent="1">
          <mxGeometry x="-170" y="1670" width="70" height="40" as="geometry" />
        </mxCell>
        <mxCell id="jXg50FpIQoOA4uiVj2zu-20" style="edgeStyle=orthogonalEdgeStyle;rounded=0;orthogonalLoop=1;jettySize=auto;html=1;exitX=1;exitY=0.5;exitDx=0;exitDy=0;entryX=0;entryY=0.5;entryDx=0;entryDy=0;" edge="1" parent="1" source="jXg50FpIQoOA4uiVj2zu-21" target="jXg50FpIQoOA4uiVj2zu-2">
          <mxGeometry relative="1" as="geometry" />
        </mxCell>
        <mxCell id="jXg50FpIQoOA4uiVj2zu-21" value="cv" style="rounded=0;whiteSpace=wrap;html=1;fontStyle=1;" vertex="1" parent="1">
          <mxGeometry x="110" y="1810" width="70" height="40" as="geometry" />
        </mxCell>
        <mxCell id="jXg50FpIQoOA4uiVj2zu-22" style="edgeStyle=orthogonalEdgeStyle;rounded=0;orthogonalLoop=1;jettySize=auto;html=1;exitX=1;exitY=0.5;exitDx=0;exitDy=0;entryX=0;entryY=0.5;entryDx=0;entryDy=0;" edge="1" parent="1" source="jXg50FpIQoOA4uiVj2zu-24" target="jXg50FpIQoOA4uiVj2zu-7">
          <mxGeometry relative="1" as="geometry" />
        </mxCell>
        <mxCell id="jXg50FpIQoOA4uiVj2zu-23" style="rounded=0;orthogonalLoop=1;jettySize=auto;html=1;exitX=0.5;exitY=0;exitDx=0;exitDy=0;entryX=0;entryY=1;entryDx=0;entryDy=0;" edge="1" parent="1" source="jXg50FpIQoOA4uiVj2zu-24" target="jXg50FpIQoOA4uiVj2zu-34">
          <mxGeometry relative="1" as="geometry" />
        </mxCell>
        <mxCell id="jXg50FpIQoOA4uiVj2zu-24" value="kt" style="rounded=0;whiteSpace=wrap;html=1;fontStyle=1;" vertex="1" parent="1">
          <mxGeometry x="-70" y="1810" width="70" height="40" as="geometry" />
        </mxCell>
        <mxCell id="jXg50FpIQoOA4uiVj2zu-25" style="edgeStyle=orthogonalEdgeStyle;rounded=0;orthogonalLoop=1;jettySize=auto;html=1;exitX=1;exitY=0.5;exitDx=0;exitDy=0;" edge="1" parent="1" source="jXg50FpIQoOA4uiVj2zu-26" target="jXg50FpIQoOA4uiVj2zu-24">
          <mxGeometry relative="1" as="geometry" />
        </mxCell>
        <mxCell id="jXg50FpIQoOA4uiVj2zu-26" value="cb" style="rounded=0;whiteSpace=wrap;html=1;fontStyle=1;" vertex="1" parent="1">
          <mxGeometry x="-170" y="1810" width="70" height="40" as="geometry" />
        </mxCell>
        <mxCell id="jXg50FpIQoOA4uiVj2zu-27" style="edgeStyle=orthogonalEdgeStyle;rounded=0;orthogonalLoop=1;jettySize=auto;html=1;exitX=0.5;exitY=1;exitDx=0;exitDy=0;" edge="1" parent="1" source="jXg50FpIQoOA4uiVj2zu-29" target="jXg50FpIQoOA4uiVj2zu-26">
          <mxGeometry relative="1" as="geometry" />
        </mxCell>
        <mxCell id="jXg50FpIQoOA4uiVj2zu-28" style="edgeStyle=orthogonalEdgeStyle;rounded=0;orthogonalLoop=1;jettySize=auto;html=1;exitX=1;exitY=0.5;exitDx=0;exitDy=0;entryX=0;entryY=0.5;entryDx=0;entryDy=0;" edge="1" parent="1" source="jXg50FpIQoOA4uiVj2zu-29" target="jXg50FpIQoOA4uiVj2zu-34">
          <mxGeometry relative="1" as="geometry" />
        </mxCell>
        <mxCell id="jXg50FpIQoOA4uiVj2zu-29" value="qp" style="rounded=0;whiteSpace=wrap;html=1;fontStyle=1;" vertex="1" parent="1">
          <mxGeometry x="-170" y="1740" width="70" height="40" as="geometry" />
        </mxCell>
        <mxCell id="jXg50FpIQoOA4uiVj2zu-30" style="edgeStyle=orthogonalEdgeStyle;rounded=0;orthogonalLoop=1;jettySize=auto;html=1;exitX=1;exitY=0.5;exitDx=0;exitDy=0;entryX=0;entryY=0.5;entryDx=0;entryDy=0;" edge="1" parent="1" source="jXg50FpIQoOA4uiVj2zu-31" target="jXg50FpIQoOA4uiVj2zu-19">
          <mxGeometry relative="1" as="geometry" />
        </mxCell>
        <mxCell id="jXg50FpIQoOA4uiVj2zu-31" value="broadcaster" style="rounded=0;whiteSpace=wrap;html=1;fontStyle=1" vertex="1" parent="1">
          <mxGeometry x="-270" y="1670" width="70" height="40" as="geometry" />
        </mxCell>
        <mxCell id="jXg50FpIQoOA4uiVj2zu-32" style="edgeStyle=orthogonalEdgeStyle;rounded=0;orthogonalLoop=1;jettySize=auto;html=1;exitX=0;exitY=0.5;exitDx=0;exitDy=0;entryX=1;entryY=0.5;entryDx=0;entryDy=0;" edge="1" parent="1" source="jXg50FpIQoOA4uiVj2zu-33" target="jXg50FpIQoOA4uiVj2zu-16">
          <mxGeometry relative="1" as="geometry" />
        </mxCell>
        <mxCell id="jXg50FpIQoOA4uiVj2zu-33" value="vm" style="rounded=0;whiteSpace=wrap;html=1;fontStyle=1;" vertex="1" parent="1">
          <mxGeometry x="200" y="1670" width="70" height="40" as="geometry" />
        </mxCell>
        <mxCell id="jXg50FpIQoOA4uiVj2zu-34" value="&amp;amp;qx" style="rounded=0;whiteSpace=wrap;html=1;fontStyle=1" vertex="1" parent="1">
          <mxGeometry x="20" y="1740" width="70" height="40" as="geometry" />
        </mxCell>
        <mxCell id="jXg50FpIQoOA4uiVj2zu-35" value="3739" style="text;html=1;align=center;verticalAlign=middle;resizable=0;points=[];autosize=1;strokeColor=none;fillColor=none;" vertex="1" parent="1">
          <mxGeometry x="-280" y="1730" width="50" height="30" as="geometry" />
        </mxCell>
      </root>
    </mxGraphModel>
  </diagram>
</mxfile>
